<?xml version="1.0" ?><svg id="Layer_1" style="enable-background:new 0 0 50 50;" version="1.1" viewBox="0 0 50 50" xml:space="preserve" xmlns="http://www.w3.org/2000/svg" xmlns:xlink="http://www.w3.org/1999/xlink"><style type="text/css">
	.st0{fill:#F0C4DB;}
	.st1{fill:#FF9D9C;}
	.st2{fill:#9BEAF9;}
	.st3{fill:#E9F4BC;}
	.st4{fill:#505050;}
	.st5{fill:#FEBECC;}
	.st6{fill:#FFFFFF;}
	.st7{fill:#FDE4A1;}
	.st8{fill:#FEE7B5;}
	.st9{fill:#CDF6FC;}
	.st10{fill:#F2C6DD;}
	.st11{opacity:0.1;}
</style><g><path class="st0" d="M18.66,34.28c-8.14,0-14.74,6.6-14.74,14.74H33.4C33.4,40.89,26.8,34.28,18.66,34.28z"/><g><path class="st1" d="M27.69,1.72c-9.74,0-17.64,7.9-17.64,17.64c0,12.67,17.64,28.36,17.64,28.36s17.64-15.69,17.64-28.36    C45.33,9.62,37.43,1.72,27.69,1.72z M27.69,32.16c-7.06,0-12.79-5.73-12.79-12.79c0-7.06,5.73-12.79,12.79-12.79    s12.79,5.73,12.79,12.79C40.48,26.43,34.75,32.16,27.69,32.16z"/><circle class="st2" cx="27.69" cy="14.19" r="3.53"/><path class="st3" d="M34.68,24.29v1.78H20.69v-1.78c0.23-3.67,3.27-6.57,7-6.57C31.41,17.72,34.45,20.62,34.68,24.29z"/><g><path class="st4" d="M20.72,39.37c0,0,0-0.01-0.01-0.01c-0.25-0.3-0.75-0.34-1.05-0.09c-0.16,0.13-0.25,0.31-0.27,0.51     c-0.01,0.2,0.05,0.39,0.17,0.54c0,0.01,0.01,0.01,0.01,0.01c0.14,0.17,0.35,0.27,0.57,0.27c0.18,0,0.35-0.07,0.48-0.18     c0.16-0.13,0.25-0.31,0.27-0.51C20.9,39.71,20.84,39.52,20.72,39.37z"/><path class="st4" d="M42.22,8.09l-0.03-0.04c-3.51-4.5-8.8-7.08-14.51-7.08c-10.14,0-18.39,8.25-18.39,18.39     c0.02,5.43,3.04,11.96,8.99,19.41c0.25,0.31,0.74,0.36,1.06,0.11c0.15-0.12,0.25-0.3,0.27-0.5c0.02-0.2-0.03-0.39-0.15-0.54     c0-0.01-0.01-0.01-0.01-0.01c-3.96-4.93-8.68-12.13-8.66-18.47c0.02-9.3,7.6-16.87,16.89-16.89c5.24,0,10.1,2.37,13.33,6.51     c2.33,2.98,3.57,6.57,3.57,10.38c0.02,6.34-4.7,13.54-8.66,18.46c-3.42,4.27-6.87,7.61-8.24,8.88c-0.88-0.82-3.12-2.96-5.67-5.84     c-0.26-0.29-0.76-0.32-1.06-0.06c-0.15,0.13-0.23,0.31-0.25,0.51c-0.01,0.2,0.06,0.4,0.19,0.55c3.35,3.78,6.18,6.31,6.3,6.42     c0.13,0.12,0.31,0.19,0.49,0.19c0.19,0,0.37-0.07,0.5-0.19c0.01,0,0.01,0,0.01-0.01c0.02-0.02,0.11-0.1,0.23-0.22     c4.51-4.18,7.7-7.98,9.59-10.44c5.31-6.91,8.03-13.05,8.07-18.25C46.08,15.23,44.74,11.33,42.22,8.09z"/><path class="st4" d="M41.23,19.37c0-7.47-6.07-13.54-13.54-13.54S14.15,11.9,14.15,19.37s6.07,13.54,13.54,13.54     S41.23,26.83,41.23,19.37z M15.65,19.37c0-6.64,5.4-12.04,12.04-12.04s12.04,5.4,12.04,12.04s-5.4,12.04-12.04,12.04     S15.65,26,15.65,19.37z"/><path class="st4" d="M35.44,26.07v-1.78c0-0.02,0-0.03,0-0.05c-0.2-3.13-2.24-5.73-5.03-6.77c0.94-0.78,1.56-1.95,1.56-3.27     c0-2.36-1.92-4.28-4.28-4.28s-4.28,1.92-4.28,4.28c0,1.32,0.62,2.49,1.56,3.28c-2.79,1.05-4.83,3.66-5.03,6.82v1.78     c0,0.41,0.34,0.75,0.75,0.75h13.99C35.1,26.82,35.44,26.48,35.44,26.07z M27.69,11.42c1.53,0,2.78,1.25,2.78,2.78     s-1.25,2.78-2.78,2.78s-2.78-1.25-2.78-2.78S26.16,11.42,27.69,11.42z M33.94,25.32H21.44l0-0.98c0.21-3.29,2.95-5.87,6.25-5.87     c3.29,0,6.02,2.57,6.24,5.84V25.32z"/></g></g></g></svg>