<?xml version="1.0" ?><svg id="Layer_1" style="enable-background:new 0 0 50 50;" version="1.1" viewBox="0 0 50 50" xml:space="preserve" xmlns="http://www.w3.org/2000/svg" xmlns:xlink="http://www.w3.org/1999/xlink"><style type="text/css">
	.st0{fill:#F0C4DB;}
	.st1{fill:#FF9D9C;}
	.st2{fill:#9BEAF9;}
	.st3{fill:#E9F4BC;}
	.st4{fill:#505050;}
	.st5{fill:#FEBECC;}
	.st6{fill:#FFFFFF;}
	.st7{fill:#FDE4A1;}
	.st8{fill:#FEE7B5;}
	.st9{fill:#CDF6FC;}
	.st10{fill:#F2C6DD;}
	.st11{opacity:0.1;}
</style><g><path class="st10" d="M39.78,43.88c0-9.61-7.64-17.65-17.25-17.75c-0.07,0-0.15,0-0.22,0c-11.6,0-21,9.4-21,21   c0,0.59,0.04,1.17,0.09,1.75h38.38V43.88z"/><g><g><rect height="5.94" width="5.94" x="5.93" y="35.12"/></g><g><polyline class="st6" points="25.67,6.35 33.05,6.35 33.05,47.88 2.68,47.88 2.68,6.35 10.06,6.35    "/><path class="st1" d="M26,8.23H9.73l0.78-4.38h5.39c0-1.1,0.89-1.97,1.97-1.97c1.09,0,1.97,0.88,1.97,1.97h5.39L26,8.23z"/></g><g><rect class="st2" height="5.94" width="5.94" x="5.93" y="14.57"/></g><g><rect class="st2" height="5.94" width="5.94" x="5.93" y="24.85"/></g><g><rect class="st2" height="5.94" width="5.94" x="5.93" y="35.12"/></g><path class="st1" d="M38.11,10.38v25.84l3.14,6.29l3.14-6.29V10.38c0-1.73-1.41-3.14-3.14-3.14h0    C39.51,7.24,38.11,8.65,38.11,10.38z"/><polygon class="st6" points="38.11,36.02 38.11,36.22 41.25,42.51 44.39,36.22 44.39,36.02   "/><g><path class="st4" d="M5.19,41.06c0,0.41,0.34,0.75,0.75,0.75h5.94c0.41,0,0.75-0.34,0.75-0.75v-5.94c0-0.41-0.34-0.75-0.75-0.75     H5.94c-0.41,0-0.75,0.34-0.75,0.75V41.06z M6.69,35.87h4.44v4.44H6.69V35.87z"/><path class="st4" d="M29.55,35.99c0-0.41-0.34-0.75-0.75-0.75H15.34c-0.41,0-0.75,0.34-0.75,0.75s0.34,0.75,0.75,0.75H28.8     C29.22,36.74,29.55,36.4,29.55,35.99z"/><path class="st4" d="M15.34,38.58c-0.41,0-0.75,0.34-0.75,0.75s0.34,0.75,0.75,0.75h5.8c0.41,0,0.75-0.34,0.75-0.75     s-0.34-0.75-0.75-0.75H15.34z"/><circle class="st4" cx="33.06" cy="43.96" r="0.75"/><path class="st4" d="M33.06,5.6h-6.75l-0.34-1.89c-0.07-0.35-0.38-0.62-0.74-0.62h-4.74c-0.33-1.16-1.41-1.97-2.62-1.97     c-1.22,0-2.29,0.81-2.62,1.97h-4.74c-0.37,0-0.68,0.27-0.74,0.62L9.43,5.6H2.68c-0.2,0-0.39,0.08-0.53,0.22     C2.01,5.96,1.93,6.15,1.93,6.35v41.52c0,0.2,0.08,0.39,0.22,0.53c0.14,0.14,0.33,0.22,0.53,0.22h30.38c0.2,0,0.39-0.08,0.53-0.22     c0.14-0.14,0.22-0.33,0.22-0.53v-1.91c0-0.41-0.34-0.75-0.75-0.75c-0.42,0-0.75,0.34-0.75,0.75v1.16H3.43V7.1h5.74L8.99,8.09     C8.95,8.31,9.01,8.53,9.16,8.7C9.3,8.87,9.51,8.97,9.73,8.97h16.28c0.22,0,0.43-0.1,0.57-0.27s0.2-0.39,0.17-0.61L26.57,7.1h5.74     v34.86c0,0.42,0.33,0.75,0.75,0.75c0.41,0,0.75-0.33,0.75-0.75V6.35c0-0.2-0.08-0.39-0.22-0.53C33.44,5.68,33.26,5.6,33.06,5.6z      M10.62,7.47l0.52-2.88h4.75c0.21,0,0.39-0.07,0.53-0.22c0.15-0.14,0.22-0.32,0.22-0.53c0-0.67,0.55-1.22,1.23-1.22     c0.67,0,1.22,0.55,1.22,1.22c0,0.2,0.08,0.4,0.22,0.53c0.14,0.14,0.33,0.22,0.53,0.22h4.76l0.51,2.88H10.62z"/><path class="st4" d="M5.94,21.25h5.93c0.2,0,0.39-0.08,0.53-0.22c0.14-0.14,0.22-0.33,0.22-0.53v-5.94c0-0.2-0.08-0.39-0.22-0.53     c-0.14-0.14-0.33-0.22-0.53-0.22H5.94c-0.2,0-0.39,0.08-0.53,0.22s-0.22,0.33-0.22,0.53v5.94c0,0.19,0.08,0.39,0.22,0.53     S5.74,21.25,5.94,21.25z M6.68,15.31h4.44v4.44H6.68V15.31z"/><path class="st4" d="M15.34,16.18H28.8c0.42,0,0.75-0.34,0.75-0.75c0-0.42-0.33-0.75-0.75-0.75H15.34     c-0.41,0-0.75,0.33-0.75,0.75C14.59,15.84,14.93,16.18,15.34,16.18z"/><path class="st4" d="M15.34,19.52h5.81c0.41,0,0.75-0.34,0.75-0.75c0-0.42-0.34-0.75-0.75-0.75h-5.81     c-0.41,0-0.75,0.33-0.75,0.75C14.59,19.18,14.93,19.52,15.34,19.52z"/><path class="st4" d="M5.19,30.78c0,0.2,0.08,0.39,0.22,0.53c0.13,0.14,0.33,0.22,0.53,0.22h5.93c0.2,0,0.39-0.08,0.53-0.22     c0.14-0.14,0.22-0.33,0.22-0.53v-5.94c0-0.2-0.08-0.39-0.22-0.53c-0.14-0.14-0.33-0.22-0.53-0.22H5.94c-0.2,0-0.4,0.08-0.53,0.22     c-0.14,0.14-0.22,0.33-0.22,0.53V30.78z M6.68,25.59h4.44v4.44H6.68V25.59z"/><path class="st4" d="M15.34,26.46H28.8c0.42,0,0.75-0.34,0.75-0.75c0-0.42-0.33-0.75-0.75-0.75H15.34     c-0.41,0-0.75,0.33-0.75,0.75C14.59,26.12,14.93,26.46,15.34,26.46z"/><path class="st4" d="M15.34,29.8h5.81c0.41,0,0.75-0.34,0.75-0.75c0-0.42-0.34-0.75-0.75-0.75h-5.81c-0.41,0-0.75,0.33-0.75,0.75     C14.59,29.46,14.93,29.8,15.34,29.8z"/><circle class="st4" cx="44.39" cy="31.12" r="0.75"/><path class="st4" d="M48.47,12.78c-0.14-0.14-0.33-0.22-0.53-0.22h-2.8v-2.18c0-2.15-1.74-3.89-3.89-3.89     c-2.14,0-3.89,1.74-3.89,3.89v25.85l0.01,0.05c0.01,0.09,0.03,0.18,0.06,0.26l0,0.02l3.14,6.29c0.13,0.26,0.39,0.41,0.67,0.41     c0.29,0,0.55-0.15,0.67-0.41l3.15-6.3l0-0.02c0.04-0.09,0.07-0.19,0.07-0.3v-3.1c0-0.42-0.33-0.75-0.75-0.75     c-0.41,0-0.75,0.33-0.75,0.75v2.35h-4.78V14.06h4.78v15.06c0,0.41,0.34,0.75,0.75,0.75c0.42,0,0.75-0.34,0.75-0.75V14.06h2.05     v11.49c0,0.42,0.34,0.75,0.75,0.75s0.75-0.33,0.75-0.75V13.31C48.69,13.11,48.61,12.92,48.47,12.78z M41.25,40.83l-1.93-3.86     h3.85L41.25,40.83z M38.86,12.56v-2.18c0.01-1.32,1.08-2.39,2.39-2.39c1.32,0,2.39,1.07,2.39,2.39v2.18H38.86z"/></g></g></g></svg>