<?xml version="1.0" ?><svg id="Layer_1" style="enable-background:new 0 0 50 50;" version="1.1" viewBox="0 0 50 50" xml:space="preserve" xmlns="http://www.w3.org/2000/svg" xmlns:xlink="http://www.w3.org/1999/xlink"><style type="text/css">
	.st0{fill:#F0C4DB;}
	.st1{fill:#FF9D9C;}
	.st2{fill:#9BEAF9;}
	.st3{fill:#E9F4BC;}
	.st4{fill:#505050;}
	.st5{fill:#FEBECC;}
	.st6{fill:#FFFFFF;}
	.st7{fill:#FDE4A1;}
	.st8{fill:#FEE7B5;}
	.st9{fill:#CDF6FC;}
	.st10{fill:#F2C6DD;}
	.st11{opacity:0.1;}
</style><g><path class="st0" d="M33.42,42.69c0-11.6-9.4-21-21-21c-3.24,0-6.29,0.75-9.03,2.06V49h29.06C33.08,47.01,33.42,44.89,33.42,42.69z   "/><g><path class="st1" d="M45.86,10.03c0,4.58-3.71,8.3-8.29,8.3c-0.8,0-1.57-0.12-2.3-0.33l-4.23,2.82l1.01-4.61    c-1.69-1.53-2.75-3.73-2.75-6.18c0-4.58,3.71-8.29,8.29-8.29C42.15,1.75,45.86,5.46,45.86,10.03z"/><path class="st2" d="M25.55,22.55v10.57c0,1.47-1.19,2.66-2.66,2.66h-1.31v11.97h-8.7V35.77h-1.31c-1.47,0-2.66-1.19-2.66-2.66    V22.55c0-1.47,1.19-2.66,2.66-2.66h11.32C24.36,19.89,25.55,21.08,25.55,22.55z"/><path class="st3" d="M11.34,10.45c0-3.26,2.64-5.9,5.9-5.9c3.26,0,5.9,2.64,5.9,5.9c0,3.26-2.64,5.9-5.9,5.9    C13.98,16.34,11.34,13.7,11.34,10.45z"/><g><path class="st4" d="M22.89,19.14H11.57c-1.87,0-3.4,1.53-3.41,3.4v0.76c0,0.41,0.34,0.75,0.75,0.75c0.42,0,0.75-0.34,0.75-0.75     v-0.76c0-1.05,0.86-1.91,1.91-1.91h11.32c1.05,0,1.91,0.86,1.91,1.91v10.57c0,1.05-0.86,1.91-1.91,1.91h-0.56v-3.89     c0-0.41-0.34-0.75-0.75-0.75s-0.75,0.34-0.75,0.75v4.64v0v11.22h-2.85v-4.16c0-0.41-0.34-0.75-0.75-0.75s-0.75,0.34-0.75,0.75     v4.16h-2.85v-11.2c0-0.01,0-0.01,0-0.02v-4.64c0-0.41-0.34-0.75-0.75-0.75s-0.75,0.34-0.75,0.75v3.89h-0.56     c-1.05,0-1.91-0.86-1.91-1.91V27.3c0-0.41-0.33-0.75-0.75-0.75c-0.41,0-0.75,0.34-0.75,0.75v5.81c0.01,1.88,1.54,3.41,3.41,3.41     h0.56v11.22c0,0.2,0.08,0.39,0.22,0.53c0.14,0.14,0.34,0.22,0.53,0.22h8.7c0.2,0,0.38-0.07,0.53-0.22     c0.14-0.14,0.22-0.33,0.22-0.53V36.52h0.56c1.88,0,3.41-1.53,3.41-3.41V22.54C26.3,20.67,24.77,19.14,22.89,19.14z"/><circle class="st4" cx="8.91" cy="25.3" r="0.75"/><path class="st4" d="M17.23,17.09c3.66,0,6.65-2.98,6.65-6.65S20.9,3.8,17.23,3.8s-6.65,2.98-6.65,6.65S13.57,17.09,17.23,17.09z      M17.23,5.3c2.84,0,5.15,2.31,5.15,5.15s-2.31,5.15-5.15,5.15s-5.15-2.31-5.15-5.15S14.4,5.3,17.23,5.3z"/><path class="st4" d="M37.58,1c-4.98,0-9.04,4.05-9.04,9.04c0,2.41,0.97,4.73,2.68,6.43l-0.92,4.2c-0.07,0.3,0.06,0.61,0.31,0.78     c0.13,0.09,0.28,0.13,0.42,0.13c0.15,0,0.29-0.04,0.42-0.13l3.95-2.64c0.71,0.18,1.44,0.26,2.17,0.26c4.98,0,9.04-4.06,9.04-9.04     C46.61,5.05,42.56,1,37.58,1z M37.58,17.58c-0.7,0-1.41-0.1-2.1-0.3c-0.21-0.06-0.44-0.03-0.62,0.1l-2.69,1.79l0.61-2.8     c0.06-0.26-0.03-0.54-0.23-0.72c-1.59-1.44-2.51-3.49-2.51-5.62c0-4.16,3.38-7.54,7.54-7.54s7.54,3.38,7.54,7.54     C45.11,14.19,41.73,17.58,37.58,17.58z"/><path class="st4" d="M41.86,6.21h-8.85c-0.41,0-0.75,0.34-0.75,0.75s0.34,0.75,0.75,0.75h8.85c0.41,0,0.75-0.34,0.75-0.75     S42.28,6.21,41.86,6.21z"/><path class="st4" d="M41.86,9.26h-8.85c-0.41,0-0.75,0.34-0.75,0.75s0.34,0.75,0.75,0.75h8.85c0.41,0,0.75-0.34,0.75-0.75     S42.28,9.26,41.86,9.26z"/><path class="st4" d="M39.5,12.3h-6.48c-0.41,0-0.75,0.34-0.75,0.75s0.34,0.75,0.75,0.75h6.48c0.41,0,0.75-0.34,0.75-0.75     S39.91,12.3,39.5,12.3z"/></g></g></g></svg>