<?xml version="1.0" ?><svg id="Layer_1" style="enable-background:new 0 0 50 50;" version="1.1" viewBox="0 0 50 50" xml:space="preserve" xmlns="http://www.w3.org/2000/svg" xmlns:xlink="http://www.w3.org/1999/xlink"><style type="text/css">
	.st0{fill:#F0C4DB;}
	.st1{fill:#FF9D9C;}
	.st2{fill:#9BEAF9;}
	.st3{fill:#E9F4BC;}
	.st4{fill:#505050;}
	.st5{fill:#FEBECC;}
	.st6{fill:#FFFFFF;}
	.st7{fill:#FDE4A1;}
	.st8{fill:#FEE7B5;}
	.st9{fill:#CDF6FC;}
	.st10{fill:#F2C6DD;}
	.st11{opacity:0.1;}
</style><g><path class="st0" d="M18.33,7.44c0,11.6,9.4,21,21,21c3.24,0,6.29-0.75,9.03-2.06V1.13H19.3C18.67,3.12,18.33,5.24,18.33,7.44z"/><g><circle class="st6" cx="11" cy="32.58" r="4.34"/><path class="st1" d="M19.62,48.13c-0.29-4.51-4.03-8.08-8.61-8.08c-4.58,0-8.33,3.57-8.61,8.08H19.62z"/><circle class="st6" cx="37.73" cy="32.58" r="4.34"/><path class="st1" d="M46.34,48.13c-0.29-4.51-4.03-8.08-8.61-8.08c-4.58,0-8.33,3.57-8.61,8.08H46.34z"/><g><polyline class="st1" points="27.9,7.33 27.9,2.13 6.39,2.13 6.39,15.22 9.47,15.22 9.47,19.92 13.49,15.22 17.14,15.22    "/></g><g><polygon class="st3" points="38.66,7.33 38.66,20.42 35.58,20.42 35.58,25.12 31.56,20.42 17.14,20.42 17.14,7.33    "/></g><g><path class="st4" d="M5.91,32.58c0,2.81,2.28,5.09,5.09,5.09s5.09-2.28,5.09-5.09s-2.28-5.09-5.09-5.09S5.91,29.78,5.91,32.58z      M14.59,32.58c0,1.98-1.61,3.59-3.59,3.59s-3.59-1.61-3.59-3.59s1.61-3.59,3.59-3.59S14.59,30.6,14.59,32.58z"/><path class="st4" d="M11,39.29c-4.93,0-9.05,3.86-9.36,8.79c-0.01,0.21,0.06,0.41,0.2,0.56c0.14,0.15,0.34,0.24,0.55,0.24h17.23     c0.21,0,0.41-0.09,0.55-0.24c0.14-0.15,0.21-0.35,0.2-0.56C20.05,43.15,15.93,39.29,11,39.29z M3.23,47.37     c0.63-3.75,3.9-6.58,7.77-6.58s7.15,2.83,7.77,6.58H3.23z"/><path class="st4" d="M32.64,32.58c0,2.81,2.28,5.09,5.09,5.09s5.09-2.28,5.09-5.09s-2.28-5.09-5.09-5.09S32.64,29.78,32.64,32.58     z M41.32,32.58c0,1.98-1.61,3.59-3.59,3.59s-3.59-1.61-3.59-3.59s1.61-3.59,3.59-3.59S41.32,30.6,41.32,32.58z"/><path class="st4" d="M37.73,39.29c-4.93,0-9.05,3.86-9.36,8.79c-0.01,0.21,0.06,0.41,0.2,0.56c0.14,0.15,0.34,0.24,0.55,0.24     h17.23c0.21,0,0.41-0.09,0.55-0.24c0.14-0.15,0.21-0.35,0.2-0.56C46.77,43.15,42.66,39.29,37.73,39.29z M29.95,47.37     c0.63-3.75,3.9-6.58,7.77-6.58c3.88,0,7.15,2.83,7.77,6.58H29.95z"/><circle class="st4" cx="17.15" cy="10.89" r="0.75"/><path class="st4" d="M6.39,15.97h2.33v3.95c0,0.31,0.2,0.59,0.49,0.7c0.08,0.03,0.17,0.05,0.26,0.05c0.21,0,0.42-0.09,0.57-0.26     l3.8-4.44h2.56v4.46c0,0.2,0.08,0.39,0.22,0.53c0.14,0.14,0.33,0.22,0.53,0.22h14.07l3.79,4.44c0.15,0.17,0.35,0.26,0.57,0.26     c0.09,0,0.18-0.01,0.26-0.05c0.3-0.1,0.49-0.39,0.49-0.7v-3.95h2.33c0.2,0,0.39-0.08,0.53-0.22c0.14-0.14,0.22-0.33,0.22-0.53     V7.33c0-0.2-0.08-0.39-0.22-0.53c-0.14-0.14-0.33-0.22-0.53-0.22h-10V2.12c0-0.41-0.34-0.75-0.75-0.75H6.39     c-0.41,0-0.75,0.34-0.75,0.75v13.09C5.64,15.63,5.98,15.97,6.39,15.97z M7.14,2.87h20.01v3.71H17.15c-0.2,0-0.39,0.08-0.53,0.22     c-0.14,0.13-0.22,0.33-0.22,0.53v1.56c0,0.42,0.33,0.75,0.75,0.75c0.41,0,0.75-0.33,0.75-0.75V8.08h20.01v11.59h-2.33     c-0.19,0-0.39,0.08-0.53,0.22c-0.14,0.14-0.22,0.33-0.22,0.53v2.67l-2.7-3.16c-0.14-0.17-0.35-0.26-0.57-0.26H17.9v-6.78     c0-0.41-0.34-0.75-0.75-0.75c-0.42,0-0.75,0.34-0.75,0.75v1.57h-2.91c-0.22,0-0.43,0.1-0.57,0.26l-2.7,3.16v-2.67     c0-0.41-0.34-0.75-0.75-0.75H7.14V2.87z"/><path class="st4" d="M20.87,11.77h14.06c0.41,0,0.75-0.34,0.75-0.75s-0.34-0.75-0.75-0.75H20.87c-0.41,0-0.75,0.34-0.75,0.75     S20.45,11.77,20.87,11.77z"/><path class="st4" d="M20.87,14.86h14.06c0.41,0,0.75-0.34,0.75-0.75s-0.34-0.75-0.75-0.75H20.87c-0.41,0-0.75,0.34-0.75,0.75     S20.45,14.86,20.87,14.86z"/><path class="st4" d="M20.87,17.96h8.7c0.41,0,0.75-0.34,0.75-0.75s-0.34-0.75-0.75-0.75h-8.7c-0.41,0-0.75,0.34-0.75,0.75     S20.45,17.96,20.87,17.96z"/></g></g></g></svg>