<svg width="60" height="60" viewBox="0 0 60 60" fill="none" xmlns="http://www.w3.org/2000/svg">
<path d="M30.162 0C12.249 0 0 11.4 0 30.162C0 48.075 12.249 60 30.162 60C48.075 60 60 48.075 60 30.162C60 11.4 48.075 0 30.162 0ZM47.979 47.979C46.8114 49.1418 45.5092 50.161 44.1 51.015V26.4L38.7 23.4V53.4C36.7459 53.9824 34.7339 54.3496 32.7 54.495V15.045L27.3 12.045V54.477C25.3689 54.3176 23.459 53.9618 21.6 53.415V25.2L16.2 28.2V51.057C9.387 46.998 5.4 39.657 5.4 30.15C5.4 22.521 7.731 16.206 12.144 11.886C16.482 7.647 22.713 5.4 30.162 5.4C37.611 5.4 43.737 7.638 48 11.868C52.323 16.17 54.6 22.497 54.6 30.168C54.6 37.5 52.311 43.65 47.979 47.979Z" fill="white"/>
</svg>
