<svg width="138" height="26" viewBox="0 0 138 26" fill="none" xmlns="http://www.w3.org/2000/svg">
<g clip-path="url(#clip0_11236_4588)">
<path d="M43.5449 21.3572H46.6595L47.3838 11.7725C47.4562 10.6378 47.408 9.09268 47.408 9.09268H47.4562C47.4562 9.09268 47.9874 10.7827 48.3978 11.7725L51.1501 18.4118H53.8782L56.6547 11.7725C57.0651 10.7827 57.5721 9.11682 57.5721 9.11682H57.6204C57.6204 9.11682 57.5721 10.6378 57.6445 11.7725L58.3688 21.3572H61.4591L60.083 4.21582H56.7513L53.3954 12.69C53.0091 13.704 52.5504 15.2008 52.5504 15.2008H52.5021C52.5021 15.2008 52.0192 13.704 51.633 12.69L48.2771 4.21582H44.9452L43.5449 21.3572ZM62.9541 15.2008C62.9541 18.7015 65.4891 21.647 69.5693 21.647C72.6354 21.647 74.5185 19.8845 74.5185 19.8845L73.3355 17.6875C73.3355 17.6875 71.7663 19.0395 69.7865 19.0395C67.9517 19.0395 66.2858 17.929 66.0927 15.7802H74.591C74.591 15.7802 74.6634 14.9594 74.6634 14.5972C74.6634 11.338 72.7561 8.75468 69.2071 8.75468C65.5374 8.75468 62.9541 11.4104 62.9541 15.2008ZM66.1893 13.6798C66.479 12.0864 67.5654 11.1207 69.1347 11.1207C70.4867 11.1207 71.5248 12.014 71.5731 13.6798H66.1893ZM76.7569 16.8425C76.7569 20.971 80.161 21.478 81.8752 21.478C82.4546 21.478 82.8167 21.4055 82.8167 21.4055V18.7257C82.8167 18.7257 82.5994 18.774 82.2614 18.774C81.4164 18.774 79.823 18.4842 79.823 16.4562V11.676H82.6236V9.23753H79.823V5.68853H76.8293V9.23753H75.1634V11.676H76.7569V16.8425ZM84.3605 21.3572H87.4266V16.4804C87.4266 15.7561 87.499 15.0801 87.6922 14.4765C88.2716 12.6417 89.7443 11.8932 91.048 11.8932C91.4585 11.8932 91.7723 11.9415 91.7723 11.9415V8.92368C91.7723 8.92368 91.5068 8.87539 91.217 8.87539C89.3339 8.87539 87.8612 10.2757 87.3059 12.0381H87.2576C87.2576 12.0381 87.3059 11.6277 87.3059 11.169V9.04439H84.3605V21.3572ZM91.9557 15.2008C91.9557 18.9913 94.9736 21.647 98.7399 21.647C102.482 21.647 105.5 18.9913 105.5 15.2008C105.5 11.4345 102.482 8.75468 98.7157 8.75468C94.9736 8.75468 91.9557 11.4345 91.9557 15.2008ZM95.0702 15.2008C95.0702 12.9314 96.736 11.3621 98.7399 11.3621C100.72 11.3621 102.385 12.9314 102.385 15.2008C102.385 17.4944 100.72 19.0395 98.7399 19.0395C96.736 19.0395 95.0702 17.4944 95.0702 15.2008ZM106.997 21.3572H110.063V15.7078C110.063 15.1284 110.111 14.5731 110.28 14.0661C110.739 12.5934 111.946 11.5552 113.588 11.5552C115.157 11.5552 115.543 12.5692 115.543 14.0661V21.3572H118.585V13.4384C118.585 10.1791 117.04 8.75468 114.312 8.75468C111.825 8.75468 110.473 10.2757 109.942 11.3138H109.894C109.894 11.3138 109.942 10.9275 109.942 10.4688V9.04439H106.997V21.3572ZM120.837 6.94396H123.879V4.21582H120.837V6.94396ZM120.837 21.3572H123.903V9.04439H120.837V21.3572ZM125.414 15.2008C125.414 18.774 128.022 21.647 132.102 21.647C135.41 21.647 137.172 19.6431 137.172 19.6431L135.989 17.4702C135.989 17.4702 134.444 19.0395 132.368 19.0395C130.026 19.0395 128.529 17.253 128.529 15.1767C128.529 13.0762 130.002 11.3621 132.271 11.3621C134.202 11.3621 135.482 12.69 135.482 12.69L136.834 10.5895C136.834 10.5895 135.313 8.75468 132.102 8.75468C128.022 8.75468 125.414 11.7001 125.414 15.2008Z" fill="#0D2451"/>
<path d="M28.3734 1.28926L35.4345 23.2748C35.8195 24.4736 34.9253 25.6998 33.6663 25.6998H28.474C27.6649 25.6998 26.9489 25.1759 26.704 24.4048L19.7232 2.41917C19.3429 1.22163 20.2368 0 21.4932 0H26.6052C27.4121 0 28.1267 0.521017 28.3734 1.28926Z" fill="#3E97FF"/>
<g filter="url(#filter0_i_11236_4588)">
<path d="M21.6116 17.55L16.6326 1.60141C16.3352 0.648742 15.453 0 14.455 0C13.2402 0 12.2385 0.951953 12.1767 2.16515L11.5693 14.0861C11.5477 14.5094 11.5988 14.9334 11.7203 15.3396L14.4231 24.375C14.6583 25.1612 15.3817 25.6998 16.2024 25.6998H18.7149C19.5232 25.6998 20.2387 25.177 20.4843 24.4069L21.6015 20.9028C21.9491 19.8127 21.9526 18.6421 21.6116 17.55Z" fill="#F4F4F4"/>
<path d="M21.6116 17.55L16.6326 1.60141C16.3352 0.648742 15.453 0 14.455 0C13.2402 0 12.2385 0.951953 12.1767 2.16515L11.5693 14.0861C11.5477 14.5094 11.5988 14.9334 11.7203 15.3396L14.4231 24.375C14.6583 25.1612 15.3817 25.6998 16.2024 25.6998H18.7149C19.5232 25.6998 20.2387 25.177 20.4843 24.4069L21.6015 20.9028C21.9491 19.8127 21.9526 18.6421 21.6116 17.55Z" fill="url(#paint0_linear_11236_4588)"/>
</g>
<path d="M9.43345 0H14.5474C15.7996 0 16.693 1.21406 16.3204 2.40962L9.4114 24.5828C9.1696 25.3588 8.45121 25.8875 7.63834 25.8875H2.52445C1.27218 25.8875 0.378854 24.6734 0.751386 23.4778L7.66039 1.30467C7.90224 0.528617 8.62063 0 9.43345 0Z" fill="#3E97FF"/>
</g>
<defs>
<filter id="filter0_i_11236_4588" x="7.56445" y="0" width="14.3008" height="28.7" filterUnits="userSpaceOnUse" color-interpolation-filters="sRGB">
<feFlood flood-opacity="0" result="BackgroundImageFix"/>
<feBlend mode="normal" in="SourceGraphic" in2="BackgroundImageFix" result="shape"/>
<feColorMatrix in="SourceAlpha" type="matrix" values="0 0 0 0 0 0 0 0 0 0 0 0 0 0 0 0 0 0 127 0" result="hardAlpha"/>
<feOffset dx="-4" dy="3"/>
<feGaussianBlur stdDeviation="2"/>
<feComposite in2="hardAlpha" operator="arithmetic" k2="-1" k3="1"/>
<feColorMatrix type="matrix" values="0 0 0 0 0.904167 0 0 0 0 0.892865 0 0 0 0 0.892865 0 0 0 0.4 0"/>
<feBlend mode="normal" in2="shape" result="effect1_innerShadow_11236_4588"/>
</filter>
<linearGradient id="paint0_linear_11236_4588" x1="13.4642" y1="11.375" x2="22.7498" y2="14.1607" gradientUnits="userSpaceOnUse">
<stop stop-opacity="0.2"/>
<stop offset="0.911458" stop-color="white" stop-opacity="0"/>
</linearGradient>
<clipPath id="clip0_11236_4588">
<rect width="137.893" height="26" fill="white"/>
</clipPath>
</defs>
</svg>
